<svg width="16" height="16" viewBox="0 0 16 16" fill="none" xmlns="http://www.w3.org/2000/svg">
<path fill-rule="evenodd" clip-rule="evenodd" d="M6.246 7.048a2.23 2.23 0 01.188-.114l.022-.012a2.25 2.25 0 012.015-.039l.018.01c.115.055.226.122.332.199l.104.08.11.096c.108.102 1.13 1.126 1.49 1.487l.125.125-.705.705L8.36 8a1.255 1.255 0 00-.886-.365l-.11.005a1.255 1.255 0 00-.85 2.058l.076.082 3.065 3.065a2.25 2.25 0 001.636.716l.142-.004a2.25 2.25 0 001.402-3.892l-6.5-6.5a2.25 2.25 0 00-1.496-.711l-.14-.005-.142.004a2.25 2.25 0 00-1.402 3.892l1.5 1.5-.705.705-1.5-1.5a3.255 3.255 0 01.566-4.912l.016-.011a3.245 3.245 0 012.965-.332 3.25 3.25 0 011.053.655l6.5 6.5a3.255 3.255 0 01-1.267 5.27l-.034.013a3.325 3.325 0 01-.551.141l-.048.008a3.11 3.11 0 01-.545.036 3.435 3.435 0 01-.519-.051 2.68 2.68 0 01-.289-.066 3.208 3.208 0 01-.559-.21l-.011-.006a3.256 3.256 0 01-.658-.43l-.119-.105-3.095-3.115a2.245 2.245 0 01.058-3.112l.03-.029c.053-.052.11-.101.168-.147l.008-.007a2.234 2.234 0 01.105-.077l.022-.015z" fill="#fff"/>
</svg>