<svg width="24" height="24" viewBox="0 0 24 24" fill="none" xmlns="http://www.w3.org/2000/svg">
<path fill-rule="evenodd" clip-rule="evenodd" d="M21 5.5C21 3.567 19.433 2 17.5 2C15.567 2 14 3.567 14 5.5C14 5.71738 14.0198 5.93012 14.0577 6.13654L8.05153 9.60422C7.41308 8.92453 6.50612 8.5 5.5 8.5C3.567 8.5 2 10.067 2 12C2 13.933 3.567 15.5 5.5 15.5C6.50612 15.5 7.41308 15.0755 8.05153 14.3958L14.0577 17.8635C14.0198 18.0699 14 18.2826 14 18.5C14 20.433 15.567 22 17.5 22C19.433 22 21 20.433 21 18.5C21 16.567 19.433 15 17.5 15C16.323 15 15.2817 15.581 14.6472 16.4718L8.821 13.108C8.93711 12.7598 9 12.3872 9 12C9 11.6128 8.93711 11.2402 8.821 10.892L14.6472 7.52824C15.2817 8.41904 16.323 9 17.5 9C19.433 9 21 7.433 21 5.5ZM15.5 5.5C15.5 4.39543 16.3954 3.5 17.5 3.5C18.6046 3.5 19.5 4.39543 19.5 5.5C19.5 6.60457 18.6046 7.5 17.5 7.5C16.3954 7.5 15.5 6.60457 15.5 5.5ZM15.5 18.5C15.5 17.3954 16.3954 16.5 17.5 16.5C18.6046 16.5 19.5 17.3954 19.5 18.5C19.5 19.6046 18.6046 20.5 17.5 20.5C16.3954 20.5 15.5 19.6046 15.5 18.5ZM5.5 10C4.39543 10 3.5 10.8954 3.5 12C3.5 13.1046 4.39543 14 5.5 14C6.60457 14 7.5 13.1046 7.5 12C7.5 10.8954 6.60457 10 5.5 10Z" fill="#000"/>
</svg>
